<?xml version="1.0" encoding="utf-8"?>
<!-- Generator: Adobe Illustrator 28.1.0, SVG Export Plug-In . SVG Version: 6.00 Build 0)  -->
<svg version="1.1" id="Calque_1" xmlns="http://www.w3.org/2000/svg" xmlns:xlink="http://www.w3.org/1999/xlink" x="0px" y="0px"
	 viewBox="0 0 1160 1080" style="enable-background:new 0 0 1160 1080;" xml:space="preserve">
<style type="text/css">
	.st0{fill:#AC1B03;}
	.st1{fill:#D85604;}
	.st2{fill:#E78C13;}
</style>
<path d="M973.4,559.5c0-109.5,0.1-219,0.2-328.5c0-47.8-17-88.5-45.3-124.6c-53-66.2-144.4-90.8-217.2-48.2
	c-165.4,85.1-88.9,325.7-105.3,484.2c-2.4,97.9-85.8,111.6-172.3,80.6c-277.7-99.6-335.1,289-89.2,387.6
	C624.2,1122.7,971.7,889.3,973.4,559.5z M934.1,560.6c0.6,258.8-244.3,478.4-484,434.1c131.7-23.2,201.1-141.6,194.5-278.3
	c-0.1-159.7,0.7-319.4-0.4-479.1c0.3-124.1,126.2-197.3,218.6-136.7c44.5,27.3,72.4,76,71.6,131.1
	C934.5,341.3,935.7,451,934.1,560.6z"/>
<path class="st0" d="M973.4,559.5c0-109.5,0.1-219,0.2-328.5c0-47.8-17-88.5-45.3-124.6c-53-66.2-144.4-90.8-217.2-48.2
	c-165.4,85.1-88.9,325.7-105.3,484.2c-2.4,97.9-85.8,111.6-172.3,80.6c-277.7-99.6-335.1,289-89.2,387.6
	C624.2,1122.7,971.7,889.3,973.4,559.5z M934.1,560.6c0.6,258.8-244.3,478.4-484,434.1c131.7-23.2,201.1-141.6,194.5-278.3
	c-0.1-159.7,0.7-319.4-0.4-479.1c0.3-124.1,126.2-197.3,218.6-136.7c44.5,27.3,72.4,76,71.6,131.1
	C934.5,341.3,935.7,451,934.1,560.6z"/>
<path class="st1" d="M973.4,559.5c0-109.5,0.1-219,0.2-328.5c0-47.8-17-88.5-45.3-124.6c-53-66.2-144.4-90.8-217.2-48.2
	c-165.4,85.1-88.9,325.7-105.3,484.2c-2.4,97.9-85.8,111.6-172.3,80.6c-277.7-99.6-335.1,289-89.2,387.6
	C624.2,1122.7,971.7,889.3,973.4,559.5z M934.1,560.6c0.6,258.8-244.3,478.4-484,434.1c131.7-23.2,201.1-141.6,194.5-278.3
	c-0.1-159.7,0.7-319.4-0.4-479.1c0.3-124.1,126.2-197.3,218.6-136.7c44.5,27.3,72.4,76,71.6,131.1
	C934.5,341.3,935.7,451,934.1,560.6z"/>
<path class="st2" d="M973.4,559.5c0-109.5,0.1-219,0.2-328.5c0-47.8-17-88.5-45.3-124.6c-53-66.2-144.4-90.8-217.2-48.2
	c-165.4,85.1-88.9,325.7-105.3,484.2c-2.4,97.9-85.8,111.6-172.3,80.6c-277.7-99.6-335.1,289-89.2,387.6
	C624.2,1122.7,971.7,889.3,973.4,559.5z M934.1,560.6c0.6,258.8-244.3,478.4-484,434.1c131.7-23.2,201.1-141.6,194.5-278.3
	c-0.1-159.7,0.7-319.4-0.4-479.1c0.3-124.1,126.2-197.3,218.6-136.7c44.5,27.3,72.4,76,71.6,131.1
	C934.5,341.3,935.7,451,934.1,560.6z"/>
</svg>
