<?xml version="1.0" encoding="utf-8"?>
<!-- Generator: Adobe Illustrator 28.1.0, SVG Export Plug-In . SVG Version: 6.00 Build 0)  -->
<svg version="1.1" id="Calque_1" xmlns="http://www.w3.org/2000/svg" xmlns:xlink="http://www.w3.org/1999/xlink" x="0px" y="0px"
	 viewBox="0 0 1920 1080" style="enable-background:new 0 0 1920 1080;" xml:space="preserve">
<style type="text/css">
	.st0{fill:#AC1B03;}
	.st1{fill:#D85604;}
</style>
<g>
	<path d="M513.84,532.01c0.02-65.27,0.05-130.54,0.09-195.8c0.02-28.47-10.15-52.72-26.99-74.28
		c-31.57-39.48-86.03-54.09-129.44-28.72c-98.55,50.71-52.96,194.1-62.73,288.55c-1.41,58.37-51.12,66.51-102.68,48.03
		C26.58,510.44-7.62,742.04,138.94,800.79C305.73,867.63,512.83,728.52,513.84,532.01z M490.44,532.65
		c0.36,154.24-145.6,285.09-288.42,258.7c78.49-13.84,119.84-84.4,115.92-165.83c-0.08-95.17,0.44-190.35-0.24-285.51
		c0.16-73.98,75.23-117.57,130.26-81.49c26.52,16.28,43.12,45.31,42.66,78.12C490.65,401.98,491.38,467.33,490.44,532.65z"/>
	<path d="M672.58,335.42v398.97c0,13.84-2.24,25.96-6.71,36.34c-4.48,10.38-10.54,19.09-18.17,26.11
		c-7.63,7.02-16.44,12.26-26.42,15.73c-9.98,3.46-20.46,5.19-31.46,5.19c-3.05,0-6.77-0.36-11.14-1.07
		c-4.38-0.72-8.91-1.78-13.59-3.21c-4.68-1.42-9.31-3.21-13.9-5.34c-4.58-2.14-8.7-4.73-12.36-7.79V746.3
		c5.3,4.89,10.99,8.19,17.1,9.92c6.11,1.73,10.99,2.6,14.66,2.6c4.07,0,7.94-0.87,11.6-2.6c3.67-1.73,6.87-4.07,9.62-7.02
		c2.75-2.95,4.89-6.36,6.41-10.23c1.53-3.87,2.29-8.04,2.29-12.52V335.42H672.58z M672.58,220.6v71.76h-72.06V220.6H672.58z"/>
	<path d="M989.74,638.04c-5.91,3.67-11.1,6.46-15.58,8.4c-4.48,1.94-8.5,3.36-12.06,4.28c-3.56,0.91-6.62,1.42-9.16,1.53
		c-2.55,0.1-4.74,0.15-6.57,0.15c-7.33,0-14-1.33-20.01-3.97c-6.01-2.64-11.3-6.16-15.88-10.53c-4.58-4.38-8.55-9.47-11.91-15.27
		c-3.36-5.8-6.16-11.95-8.4-18.47c-9.16,9.57-17.81,17.46-25.95,23.66c-8.14,6.21-16.19,11.15-24.12,14.81
		c-7.94,3.67-15.88,6.21-23.82,7.64c-7.94,1.42-16.18,2.14-24.74,2.14c-14.04,0-27.13-2.19-39.24-6.57
		c-12.12-4.38-22.65-10.58-31.6-18.63c-8.96-8.04-15.99-17.76-21.07-29.16c-5.09-11.4-7.63-24.02-7.63-37.87
		c0-12.01,2.69-22.39,8.09-31.15c5.4-8.75,12.52-16.39,21.38-22.9c8.86-6.51,18.94-12.11,30.23-16.8c11.3-4.68,22.8-8.9,34.51-12.67
		c11.71-3.76,23.21-7.38,34.51-10.84c11.3-3.46,21.38-7.12,30.23-10.99c8.86-3.86,15.98-8.19,21.38-12.98
		c5.39-4.78,8.09-10.53,8.09-17.25c0-6.51-1.68-11.95-5.04-16.34c-3.35-4.37-7.63-7.94-12.82-10.69c-5.19-2.75-10.99-4.73-17.4-5.95
		c-6.42-1.22-12.67-1.83-18.78-1.83c-6.11,0-12.22,0.87-18.33,2.6c-6.11,1.73-11.65,4.43-16.64,8.09c-4.99,3.67-9.21,8.4-12.67,14.2
		c-3.47,5.8-5.71,12.67-6.72,20.61h-72.99c1.22-17.91,5.65-33.54,13.29-46.87c7.63-13.33,17.35-24.38,29.16-33.13
		c11.8-8.75,25.09-15.27,39.85-19.54c14.76-4.28,29.78-6.41,45.04-6.41c16.69,0,32.62,1.83,47.79,5.5
		c15.16,3.67,28.55,9.47,40.15,17.4c11.61,7.94,20.87,18.07,27.79,30.39c6.91,12.32,10.38,27.13,10.38,44.43v150.86
		c0,4.07,1.32,7.79,3.96,11.15c2.65,3.36,6.42,5.04,11.3,5.04c0.61,0,2.85-0.26,6.72-0.77c3.86-0.5,8.95-2.49,15.27-5.95V638.04z
		 M880.41,497.27c-4.68,2.85-10.79,5.4-18.32,7.63c-7.53,2.24-15.68,4.53-24.43,6.87c-8.76,2.34-17.56,4.84-26.42,7.48
		c-8.85,2.65-16.85,5.75-23.97,9.31c-7.13,3.56-12.98,7.74-17.56,12.52c-4.58,4.78-6.87,10.44-6.87,16.95
		c0,6.31,1.01,11.71,3.05,16.18c2.04,4.48,4.74,8.14,8.09,10.99c3.36,2.85,7.18,4.94,11.46,6.26c4.27,1.33,8.55,1.99,12.82,1.99
		c14.05,0,28.35-4.73,42.91-14.2c14.55-9.47,27.63-23.77,39.24-42.91V497.27z"/>
	<path d="M1082.33,220.6v425.69h-72.06V220.6H1082.33z"/>
	<path d="M1208.93,249.92v85.5h57.11v58.94h-57.11v169.17c0,8.55,1.99,15.68,5.96,21.38c3.96,5.7,9.51,8.55,16.64,8.55
		c2.24,0,6.72-0.35,13.44-1.07c6.71-0.71,15.98-3.41,27.79-8.09v56.8c-12.63,4.89-24.58,7.99-35.88,9.31
		c-11.3,1.32-20.61,1.99-27.94,1.99c-9.57,0-18.73-1.94-27.48-5.8c-8.76-3.86-16.44-9.31-23.06-16.34
		c-6.62-7.03-11.86-15.52-15.73-25.5c-3.86-9.97-5.8-21.07-5.8-33.29V394.36h-44.28v-58.94h44.28v-85.5H1208.93z"/>
	<path d="M1546.87,646.29h-72.07v-35.12c-7.73,7.94-15.27,14.56-22.59,19.85c-7.33,5.3-14.56,9.52-21.69,12.67
		c-7.13,3.16-14.35,5.39-21.68,6.72c-7.33,1.32-14.86,1.99-22.6,1.99c-15.68,0-29.68-2.35-41.99-7.03
		c-12.32-4.68-22.86-11.35-31.61-20c-8.76-8.65-15.42-19.03-20-31.15c-4.58-12.11-6.87-25.7-6.87-40.77V335.42h72.07v212.84
		c0,7.94,1.07,14.71,3.21,20.31c2.14,5.6,5.09,10.13,8.86,13.59c3.76,3.46,8.19,5.95,13.29,7.48c5.08,1.53,10.58,2.29,16.48,2.29
		c9.37,0,18.58-2.18,27.64-6.57c9.06-4.37,17.1-10.33,24.12-17.86c7.02-7.53,12.67-16.18,16.95-25.96
		c4.27-9.77,6.41-20.15,6.41-31.15V335.42h72.07V646.29z"/>
	<path d="M1569.77,335.42h72.06v34.2c4.68-7.33,9.97-13.59,15.88-18.78c5.9-5.19,12.06-9.36,18.47-12.52
		c6.42-3.15,12.93-5.44,19.55-6.87c6.61-1.42,12.87-2.14,18.78-2.14c19.95,0,37.87,4.18,53.75,12.52
		c15.88,8.35,29.37,19.75,40.46,34.2c11.09,14.45,19.6,31.45,25.5,50.99c5.9,19.54,8.86,40.51,8.86,62.91
		c0,22.19-2.6,43.16-7.79,62.91c-5.19,19.75-12.98,37-23.36,51.76c-10.38,14.76-23.26,26.42-38.63,34.97
		c-15.38,8.55-33.13,12.83-53.29,12.83c-7.12,0-14.35-0.97-21.68-2.9c-7.33-1.94-14.41-4.78-21.22-8.55
		c-6.83-3.77-13.29-8.45-19.39-14.05c-6.11-5.6-11.4-11.96-15.88-19.09v209.95h-72.06V335.42z M1641.83,494.21
		c0.4,13.44,2.08,26.06,5.04,37.87c2.95,11.81,7.18,22.14,12.67,31c5.5,8.85,12.11,15.83,19.84,20.92
		c7.73,5.09,16.59,7.64,26.57,7.64c10.38,0,19.64-2.7,27.79-8.09c8.14-5.39,14.97-12.67,20.46-21.83c5.5-9.16,9.66-19.9,12.52-32.22
		c2.85-12.31,4.27-25.5,4.27-39.54c0-14.05-1.42-27.23-4.27-39.55c-2.86-12.31-7.02-23.1-12.52-32.37
		c-5.5-9.26-12.32-16.54-20.46-21.83c-8.14-5.29-17.4-7.94-27.79-7.94c-10.18,0-19.24,2.65-27.18,7.94
		c-7.94,5.3-14.66,12.57-20.16,21.83c-5.5,9.27-9.67,20.06-12.52,32.37c-2.85,12.32-4.27,25.5-4.27,39.55V494.21z"/>
</g>
<g>
	<path class="st0" d="M513.84,532.01c0.02-65.27,0.05-130.54,0.09-195.8c0.02-28.47-10.15-52.72-26.99-74.28
		c-31.57-39.48-86.03-54.09-129.44-28.72c-98.55,50.71-52.96,194.1-62.73,288.55c-1.41,58.37-51.12,66.51-102.68,48.03
		C26.58,510.44-7.62,742.04,138.94,800.79C305.73,867.63,512.83,728.52,513.84,532.01z M490.44,532.65
		c0.36,154.24-145.6,285.09-288.42,258.7c78.49-13.84,119.84-84.4,115.92-165.83c-0.08-95.17,0.44-190.35-0.24-285.51
		c0.16-73.98,75.23-117.57,130.26-81.49c26.52,16.28,43.12,45.31,42.66,78.12C490.65,401.98,491.38,467.33,490.44,532.65z"/>
	<path class="st0" d="M672.58,335.42v398.97c0,13.84-2.24,25.96-6.71,36.34c-4.48,10.38-10.54,19.09-18.17,26.11
		c-7.63,7.02-16.44,12.26-26.42,15.73c-9.98,3.46-20.46,5.19-31.46,5.19c-3.05,0-6.77-0.36-11.14-1.07
		c-4.38-0.72-8.91-1.78-13.59-3.21c-4.68-1.42-9.31-3.21-13.9-5.34c-4.58-2.14-8.7-4.73-12.36-7.79V746.3
		c5.3,4.89,10.99,8.19,17.1,9.92c6.11,1.73,10.99,2.6,14.66,2.6c4.07,0,7.94-0.87,11.6-2.6c3.67-1.73,6.87-4.07,9.62-7.02
		c2.75-2.95,4.89-6.36,6.41-10.23c1.53-3.87,2.29-8.04,2.29-12.52V335.42H672.58z M672.58,220.6v71.76h-72.06V220.6H672.58z"/>
	<path class="st0" d="M989.74,638.04c-5.91,3.67-11.1,6.46-15.58,8.4c-4.48,1.94-8.5,3.36-12.06,4.28
		c-3.56,0.91-6.62,1.42-9.16,1.53c-2.55,0.1-4.74,0.15-6.57,0.15c-7.33,0-14-1.33-20.01-3.97c-6.01-2.64-11.3-6.16-15.88-10.53
		c-4.58-4.38-8.55-9.47-11.91-15.27c-3.36-5.8-6.16-11.95-8.4-18.47c-9.16,9.57-17.81,17.46-25.95,23.66
		c-8.14,6.21-16.19,11.15-24.12,14.81c-7.94,3.67-15.88,6.21-23.82,7.64c-7.94,1.42-16.18,2.14-24.74,2.14
		c-14.04,0-27.13-2.19-39.24-6.57c-12.12-4.38-22.65-10.58-31.6-18.63c-8.96-8.04-15.99-17.76-21.07-29.16
		c-5.09-11.4-7.63-24.02-7.63-37.87c0-12.01,2.69-22.39,8.09-31.15c5.4-8.75,12.52-16.39,21.38-22.9
		c8.86-6.51,18.94-12.11,30.23-16.8c11.3-4.68,22.8-8.9,34.51-12.67c11.71-3.76,23.21-7.38,34.51-10.84
		c11.3-3.46,21.38-7.12,30.23-10.99c8.86-3.86,15.98-8.19,21.38-12.98c5.39-4.78,8.09-10.53,8.09-17.25
		c0-6.51-1.68-11.95-5.04-16.34c-3.35-4.37-7.63-7.94-12.82-10.69c-5.19-2.75-10.99-4.73-17.4-5.95
		c-6.42-1.22-12.67-1.83-18.78-1.83c-6.11,0-12.22,0.87-18.33,2.6c-6.11,1.73-11.65,4.43-16.64,8.09c-4.99,3.67-9.21,8.4-12.67,14.2
		c-3.47,5.8-5.71,12.67-6.72,20.61h-72.99c1.22-17.91,5.65-33.54,13.29-46.87c7.63-13.33,17.35-24.38,29.16-33.13
		c11.8-8.75,25.09-15.27,39.85-19.54c14.76-4.28,29.78-6.41,45.04-6.41c16.69,0,32.62,1.83,47.79,5.5
		c15.16,3.67,28.55,9.47,40.15,17.4c11.61,7.94,20.87,18.07,27.79,30.39c6.91,12.32,10.38,27.13,10.38,44.43v150.86
		c0,4.07,1.32,7.79,3.96,11.15c2.65,3.36,6.42,5.04,11.3,5.04c0.61,0,2.85-0.26,6.72-0.77c3.86-0.5,8.95-2.49,15.27-5.95V638.04z
		 M880.41,497.27c-4.68,2.85-10.79,5.4-18.32,7.63c-7.53,2.24-15.68,4.53-24.43,6.87c-8.76,2.34-17.56,4.84-26.42,7.48
		c-8.85,2.65-16.85,5.75-23.97,9.31c-7.13,3.56-12.98,7.74-17.56,12.52c-4.58,4.78-6.87,10.44-6.87,16.95
		c0,6.31,1.01,11.71,3.05,16.18c2.04,4.48,4.74,8.14,8.09,10.99c3.36,2.85,7.18,4.94,11.46,6.26c4.27,1.33,8.55,1.99,12.82,1.99
		c14.05,0,28.35-4.73,42.91-14.2c14.55-9.47,27.63-23.77,39.24-42.91V497.27z"/>
	<path class="st0" d="M1082.33,220.6v425.69h-72.06V220.6H1082.33z"/>
	<path class="st0" d="M1208.93,249.92v85.5h57.11v58.94h-57.11v169.17c0,8.55,1.99,15.68,5.96,21.38c3.96,5.7,9.51,8.55,16.64,8.55
		c2.24,0,6.72-0.35,13.44-1.07c6.71-0.71,15.98-3.41,27.79-8.09v56.8c-12.63,4.89-24.58,7.99-35.88,9.31
		c-11.3,1.32-20.61,1.99-27.94,1.99c-9.57,0-18.73-1.94-27.48-5.8c-8.76-3.86-16.44-9.31-23.06-16.34
		c-6.62-7.03-11.86-15.52-15.73-25.5c-3.86-9.97-5.8-21.07-5.8-33.29V394.36h-44.28v-58.94h44.28v-85.5H1208.93z"/>
	<path class="st0" d="M1546.87,646.29h-72.07v-35.12c-7.73,7.94-15.27,14.56-22.59,19.85c-7.33,5.3-14.56,9.52-21.69,12.67
		c-7.13,3.16-14.35,5.39-21.68,6.72c-7.33,1.32-14.86,1.99-22.6,1.99c-15.68,0-29.68-2.35-41.99-7.03
		c-12.32-4.68-22.86-11.35-31.61-20c-8.76-8.65-15.42-19.03-20-31.15c-4.58-12.11-6.87-25.7-6.87-40.77V335.42h72.07v212.84
		c0,7.94,1.07,14.71,3.21,20.31c2.14,5.6,5.09,10.13,8.86,13.59c3.76,3.46,8.19,5.95,13.29,7.48c5.08,1.53,10.58,2.29,16.48,2.29
		c9.37,0,18.58-2.18,27.64-6.57c9.06-4.37,17.1-10.33,24.12-17.86c7.02-7.53,12.67-16.18,16.95-25.96
		c4.27-9.77,6.41-20.15,6.41-31.15V335.42h72.07V646.29z"/>
	<path class="st0" d="M1569.77,335.42h72.06v34.2c4.68-7.33,9.97-13.59,15.88-18.78c5.9-5.19,12.06-9.36,18.47-12.52
		c6.42-3.15,12.93-5.44,19.55-6.87c6.61-1.42,12.87-2.14,18.78-2.14c19.95,0,37.87,4.18,53.75,12.52
		c15.88,8.35,29.37,19.75,40.46,34.2c11.09,14.45,19.6,31.45,25.5,50.99c5.9,19.54,8.86,40.51,8.86,62.91
		c0,22.19-2.6,43.16-7.79,62.91c-5.19,19.75-12.98,37-23.36,51.76c-10.38,14.76-23.26,26.42-38.63,34.97
		c-15.38,8.55-33.13,12.83-53.29,12.83c-7.12,0-14.35-0.97-21.68-2.9c-7.33-1.94-14.41-4.78-21.22-8.55
		c-6.83-3.77-13.29-8.45-19.39-14.05c-6.11-5.6-11.4-11.96-15.88-19.09v209.95h-72.06V335.42z M1641.83,494.21
		c0.4,13.44,2.08,26.06,5.04,37.87c2.95,11.81,7.18,22.14,12.67,31c5.5,8.85,12.11,15.83,19.84,20.92
		c7.73,5.09,16.59,7.64,26.57,7.64c10.38,0,19.64-2.7,27.79-8.09c8.14-5.39,14.97-12.67,20.46-21.83c5.5-9.16,9.66-19.9,12.52-32.22
		c2.85-12.31,4.27-25.5,4.27-39.54c0-14.05-1.42-27.23-4.27-39.55c-2.86-12.31-7.02-23.1-12.52-32.37
		c-5.5-9.26-12.32-16.54-20.46-21.83c-8.14-5.29-17.4-7.94-27.79-7.94c-10.18,0-19.24,2.65-27.18,7.94
		c-7.94,5.3-14.66,12.57-20.16,21.83c-5.5,9.27-9.67,20.06-12.52,32.37c-2.85,12.32-4.27,25.5-4.27,39.55V494.21z"/>
</g>
<g>
	<path class="st1" d="M513.84,532.01c0.02-65.27,0.05-130.54,0.09-195.8c0.02-28.47-10.15-52.72-26.99-74.28
		c-31.57-39.48-86.03-54.09-129.44-28.72c-98.55,50.71-52.96,194.1-62.73,288.55c-1.41,58.37-51.12,66.51-102.68,48.03
		C26.58,510.44-7.62,742.04,138.94,800.79C305.73,867.63,512.83,728.52,513.84,532.01z M490.44,532.65
		c0.36,154.24-145.6,285.09-288.42,258.7c78.49-13.84,119.84-84.4,115.92-165.83c-0.08-95.17,0.44-190.35-0.24-285.51
		c0.16-73.98,75.23-117.57,130.26-81.49c26.52,16.28,43.12,45.31,42.66,78.12C490.65,401.98,491.38,467.33,490.44,532.65z"/>
	<path class="st1" d="M672.58,335.42v398.97c0,13.84-2.24,25.96-6.71,36.34c-4.48,10.38-10.54,19.09-18.17,26.11
		c-7.63,7.02-16.44,12.26-26.42,15.73c-9.98,3.46-20.46,5.19-31.46,5.19c-3.05,0-6.77-0.36-11.14-1.07
		c-4.38-0.72-8.91-1.78-13.59-3.21c-4.68-1.42-9.31-3.21-13.9-5.34c-4.58-2.14-8.7-4.73-12.36-7.79V746.3
		c5.3,4.89,10.99,8.19,17.1,9.92c6.11,1.73,10.99,2.6,14.66,2.6c4.07,0,7.94-0.87,11.6-2.6c3.67-1.73,6.87-4.07,9.62-7.02
		c2.75-2.95,4.89-6.36,6.41-10.23c1.53-3.87,2.29-8.04,2.29-12.52V335.42H672.58z M672.58,220.6v71.76h-72.06V220.6H672.58z"/>
	<path class="st1" d="M989.74,638.04c-5.91,3.67-11.1,6.46-15.58,8.4c-4.48,1.94-8.5,3.36-12.06,4.28
		c-3.56,0.91-6.62,1.42-9.16,1.53c-2.55,0.1-4.74,0.15-6.57,0.15c-7.33,0-14-1.33-20.01-3.97c-6.01-2.64-11.3-6.16-15.88-10.53
		c-4.58-4.38-8.55-9.47-11.91-15.27c-3.36-5.8-6.16-11.95-8.4-18.47c-9.16,9.57-17.81,17.46-25.95,23.66
		c-8.14,6.21-16.19,11.15-24.12,14.81c-7.94,3.67-15.88,6.21-23.82,7.64c-7.94,1.42-16.18,2.14-24.74,2.14
		c-14.04,0-27.13-2.19-39.24-6.57c-12.12-4.38-22.65-10.58-31.6-18.63c-8.96-8.04-15.99-17.76-21.07-29.16
		c-5.09-11.4-7.63-24.02-7.63-37.87c0-12.01,2.69-22.39,8.09-31.15c5.4-8.75,12.52-16.39,21.38-22.9
		c8.86-6.51,18.94-12.11,30.23-16.8c11.3-4.68,22.8-8.9,34.51-12.67c11.71-3.76,23.21-7.38,34.51-10.84
		c11.3-3.46,21.38-7.12,30.23-10.99c8.86-3.86,15.98-8.19,21.38-12.98c5.39-4.78,8.09-10.53,8.09-17.25
		c0-6.51-1.68-11.95-5.04-16.34c-3.35-4.37-7.63-7.94-12.82-10.69c-5.19-2.75-10.99-4.73-17.4-5.95
		c-6.42-1.22-12.67-1.83-18.78-1.83c-6.11,0-12.22,0.87-18.33,2.6c-6.11,1.73-11.65,4.43-16.64,8.09c-4.99,3.67-9.21,8.4-12.67,14.2
		c-3.47,5.8-5.71,12.67-6.72,20.61h-72.99c1.22-17.91,5.65-33.54,13.29-46.87c7.63-13.33,17.35-24.38,29.16-33.13
		c11.8-8.75,25.09-15.27,39.85-19.54c14.76-4.28,29.78-6.41,45.04-6.41c16.69,0,32.62,1.83,47.79,5.5
		c15.16,3.67,28.55,9.47,40.15,17.4c11.61,7.94,20.87,18.07,27.79,30.39c6.91,12.32,10.38,27.13,10.38,44.43v150.86
		c0,4.07,1.32,7.79,3.96,11.15c2.65,3.36,6.42,5.04,11.3,5.04c0.61,0,2.85-0.26,6.72-0.77c3.86-0.5,8.95-2.49,15.27-5.95V638.04z
		 M880.41,497.27c-4.68,2.85-10.79,5.4-18.32,7.63c-7.53,2.24-15.68,4.53-24.43,6.87c-8.76,2.34-17.56,4.84-26.42,7.48
		c-8.85,2.65-16.85,5.75-23.97,9.31c-7.13,3.56-12.98,7.74-17.56,12.52c-4.58,4.78-6.87,10.44-6.87,16.95
		c0,6.31,1.01,11.71,3.05,16.18c2.04,4.48,4.74,8.14,8.09,10.99c3.36,2.85,7.18,4.94,11.46,6.26c4.27,1.33,8.55,1.99,12.82,1.99
		c14.05,0,28.35-4.73,42.91-14.2c14.55-9.47,27.63-23.77,39.24-42.91V497.27z"/>
	<path class="st1" d="M1082.33,220.6v425.69h-72.06V220.6H1082.33z"/>
	<path class="st1" d="M1208.93,249.92v85.5h57.11v58.94h-57.11v169.17c0,8.55,1.99,15.68,5.96,21.38c3.96,5.7,9.51,8.55,16.64,8.55
		c2.24,0,6.72-0.35,13.44-1.07c6.71-0.71,15.98-3.41,27.79-8.09v56.8c-12.63,4.89-24.58,7.99-35.88,9.31
		c-11.3,1.32-20.61,1.99-27.94,1.99c-9.57,0-18.73-1.94-27.48-5.8c-8.76-3.86-16.44-9.31-23.06-16.34
		c-6.62-7.03-11.86-15.52-15.73-25.5c-3.86-9.97-5.8-21.07-5.8-33.29V394.36h-44.28v-58.94h44.28v-85.5H1208.93z"/>
	<path class="st1" d="M1546.87,646.29h-72.07v-35.12c-7.73,7.94-15.27,14.56-22.59,19.85c-7.33,5.3-14.56,9.52-21.69,12.67
		c-7.13,3.16-14.35,5.39-21.68,6.72c-7.33,1.32-14.86,1.99-22.6,1.99c-15.68,0-29.68-2.35-41.99-7.03
		c-12.32-4.68-22.86-11.35-31.61-20c-8.76-8.65-15.42-19.03-20-31.15c-4.58-12.11-6.87-25.7-6.87-40.77V335.42h72.07v212.84
		c0,7.94,1.07,14.71,3.21,20.31c2.14,5.6,5.09,10.13,8.86,13.59c3.76,3.46,8.19,5.95,13.29,7.48c5.08,1.53,10.58,2.29,16.48,2.29
		c9.37,0,18.58-2.18,27.64-6.57c9.06-4.37,17.1-10.33,24.12-17.86c7.02-7.53,12.67-16.18,16.95-25.96
		c4.27-9.77,6.41-20.15,6.41-31.15V335.42h72.07V646.29z"/>
	<path class="st1" d="M1569.77,335.42h72.06v34.2c4.68-7.33,9.97-13.59,15.88-18.78c5.9-5.19,12.06-9.36,18.47-12.52
		c6.42-3.15,12.93-5.44,19.55-6.87c6.61-1.42,12.87-2.14,18.78-2.14c19.95,0,37.87,4.18,53.75,12.52
		c15.88,8.35,29.37,19.75,40.46,34.2c11.09,14.45,19.6,31.45,25.5,50.99c5.9,19.54,8.86,40.51,8.86,62.91
		c0,22.19-2.6,43.16-7.79,62.91c-5.19,19.75-12.98,37-23.36,51.76c-10.38,14.76-23.26,26.42-38.63,34.97
		c-15.38,8.55-33.13,12.83-53.29,12.83c-7.12,0-14.35-0.97-21.68-2.9c-7.33-1.94-14.41-4.78-21.22-8.55
		c-6.83-3.77-13.29-8.45-19.39-14.05c-6.11-5.6-11.4-11.96-15.88-19.09v209.95h-72.06V335.42z M1641.83,494.21
		c0.4,13.44,2.08,26.06,5.04,37.87c2.95,11.81,7.18,22.14,12.67,31c5.5,8.85,12.11,15.83,19.84,20.92
		c7.73,5.09,16.59,7.64,26.57,7.64c10.38,0,19.64-2.7,27.79-8.09c8.14-5.39,14.97-12.67,20.46-21.83c5.5-9.16,9.66-19.9,12.52-32.22
		c2.85-12.31,4.27-25.5,4.27-39.54c0-14.05-1.42-27.23-4.27-39.55c-2.86-12.31-7.02-23.1-12.52-32.37
		c-5.5-9.26-12.32-16.54-20.46-21.83c-8.14-5.29-17.4-7.94-27.79-7.94c-10.18,0-19.24,2.65-27.18,7.94
		c-7.94,5.3-14.66,12.57-20.16,21.83c-5.5,9.27-9.67,20.06-12.52,32.37c-2.85,12.32-4.27,25.5-4.27,39.55V494.21z"/>
</g>
</svg>
