<svg width="63" height="20" viewBox="0 0 63 20" fill="none" xmlns="http://www.w3.org/2000/svg">
<path fill-rule="evenodd" clip-rule="evenodd" d="M49.0163 2.22042C47.6374 2.22042 47.5502 4.26627 47.5502 5.54222L47.5502 5.58659V5.58662C47.55 6.88051 47.5496 9.54658 48.9989 9.54658C50.4477 9.54658 50.5173 7.34637 50.5173 6.00435C50.5173 5.12445 50.4825 4.06848 50.2381 3.23226C50.0284 2.50625 49.6095 2.22042 49.0163 2.22042ZM48.9989 0.0863037C51.7741 0.0863037 53.2748 2.68232 53.2748 5.9824C53.2748 9.17225 51.6171 11.7026 48.9989 11.7026C46.2762 11.7026 44.7927 9.1064 44.7927 5.87241C44.7927 2.61624 46.2936 0.0863037 48.9989 0.0863037ZM35.6279 2.5343V1.02306C35.6288 0.793041 35.7983 0.639697 36.0023 0.640164L42.6212 0.639463C42.8327 0.639463 43.0027 0.797249 43.0031 1.02119L43.0027 2.31737C43.0011 2.53477 42.8222 2.81855 42.5043 3.26876L39.0758 8.27841C40.3485 8.24802 41.6948 8.44274 42.8512 9.10801C43.1118 9.25785 43.1817 9.48039 43.2023 9.69802V11.3105C43.2023 11.5328 42.9647 11.7899 42.7151 11.6562C40.6776 10.5641 37.9741 10.4446 35.7215 11.6693C35.4913 11.7948 35.2503 11.5414 35.2503 11.3191V9.78614C35.2503 9.54093 35.2549 9.12134 35.4966 8.74733L39.4689 2.91556L36.0103 2.91485C35.799 2.91485 35.6293 2.76057 35.6279 2.5343ZM25.2785 20C29.8071 20 35.0665 18.3808 38.6939 15.3364C39.2943 14.8326 38.7801 14.0768 38.1668 14.3729C34.1 16.3345 29.6802 17.2835 25.6595 17.2835C19.6992 17.2835 13.9286 15.4236 9.26197 12.3354C8.85383 12.0652 8.5509 12.5418 8.89044 12.8905C13.216 17.3321 18.9313 20 25.2785 20ZM36.0948 13.7432C37.2954 13.6038 39.9524 13.2952 40.427 13.8851C40.9023 14.4759 39.8989 16.9097 39.4504 17.9975L39.45 17.9985C39.3142 18.3277 39.6056 18.4605 39.9122 18.2113C41.9054 16.5922 42.4204 13.1995 42.0121 12.7094C41.6071 12.2241 38.1226 11.8051 35.9961 13.2557C35.669 13.4789 35.7254 13.7863 36.0882 13.744L36.0948 13.7432ZM11.2022 11.7026H13.0909C13.2923 11.7026 13.4556 11.54 13.4554 11.3372L13.456 5.95751L13.4559 5.82989C13.454 4.66879 13.4516 3.15964 14.7609 3.15964C15.965 3.15964 15.9447 4.50486 15.9282 5.59898C15.9263 5.72245 15.9245 5.84273 15.9245 5.95751L15.9264 11.3381C15.9264 11.5326 16.076 11.6899 16.2656 11.7026H18.1522C18.3534 11.7026 18.5166 11.54 18.5166 11.3372V5.95751L18.5164 5.82288V5.82286C18.5151 5.25417 18.5134 4.48804 18.6927 4.01405C18.8866 3.50127 19.3629 3.18094 19.8212 3.18094C20.3678 3.18094 20.791 3.37318 20.932 4.05667C21.0033 4.38452 20.9939 5.14462 20.9877 5.64975V5.64991V5.65007V5.65023V5.65037C20.9862 5.77019 20.9849 5.87563 20.9849 5.95751L20.9853 11.3381C20.9853 11.5326 21.1349 11.6899 21.3245 11.7026H23.2113C23.4122 11.7026 23.5755 11.54 23.5755 11.3372L23.577 4.93239C23.577 4.77524 23.5796 4.61498 23.5822 4.4532C23.5975 3.49366 23.6137 2.481 23.1007 1.75004C22.5717 0.981094 21.7078 0.639463 20.9144 0.639463C19.8035 0.639463 18.7632 1.23749 18.3049 2.51899C17.7759 1.23749 17.0354 0.639463 15.854 0.639463C14.6904 0.639463 13.8265 1.23749 13.368 2.51899H13.3326V1.19374C13.321 1.00868 13.1732 0.86288 12.9891 0.85301L11.2301 0.853459C11.0287 0.853459 10.8656 1.01586 10.8656 1.21887L10.8643 11.3684C10.8787 11.5488 11.0225 11.6903 11.2022 11.7026ZM54.6855 11.7026H56.6144C56.8206 11.7026 56.9879 11.54 56.9915 11.3372V5.87204C56.9915 5.18856 57.0279 4.56923 57.2989 3.94989C57.5155 3.45865 57.9492 3.13833 58.4192 3.13833C59.6527 3.13833 59.6409 4.5191 59.6317 5.60497C59.6309 5.69642 59.6301 5.78578 59.6301 5.87204V11.3828C59.6512 11.5564 59.7957 11.6908 59.9749 11.7026H61.9158C62.1071 11.7026 62.265 11.5629 62.287 11.3828V4.99632C62.287 4.01405 62.287 2.64708 61.7808 1.83551C61.2386 0.959784 60.3889 0.639463 59.5216 0.639463C58.1842 0.639463 57.4254 1.30141 56.8832 2.6897H56.8467V1.13722C56.8112 0.979748 56.6717 0.861759 56.5028 0.85301L54.7068 0.853459C54.5118 0.853459 54.3513 0.999263 54.335 1.18477L54.3381 11.3381C54.3381 11.5326 54.4916 11.6899 54.6855 11.7026ZM33.0703 11.4309C32.943 11.55 32.7596 11.558 32.6161 11.4776C32.0748 11.0077 31.91 10.752 31.6599 10.3637C31.6149 10.2939 31.5672 10.2198 31.514 10.1395C30.4585 11.2624 29.7109 11.599 28.3441 11.599C26.7254 11.599 25.4661 10.5558 25.4661 8.46943C25.4661 6.83927 26.3115 5.73094 27.5166 5.18747C28.3979 4.78336 29.5747 4.65872 30.5911 4.55107C30.7777 4.5313 30.9589 4.51211 31.1319 4.49186V4.23106C31.1319 4.18156 31.1323 4.13113 31.1327 4.08002L31.1327 4.07949C31.1361 3.63719 31.1399 3.14496 30.8981 2.77492C30.6641 2.40547 30.2146 2.25332 29.8188 2.25332C29.0856 2.25332 28.4337 2.64577 28.2734 3.45914C28.2403 3.63999 28.1138 3.81902 27.9395 3.82813L26.0759 3.61767C25.9187 3.58055 25.7438 3.44867 25.7891 3.19789C26.2175 0.836583 28.259 0.123203 30.0888 0.123203C31.024 0.123203 32.247 0.384001 32.9844 1.12312C33.8437 1.96175 33.8376 3.05698 33.8309 4.2575C33.8303 4.36383 33.8297 4.47099 33.8297 4.57887V7.70731C33.8297 8.54737 34.1282 8.96658 34.4422 9.40762L34.4423 9.40767C34.48 9.46061 34.5179 9.51387 34.5555 9.5682C34.6783 9.75088 34.706 9.96817 34.5492 10.1016C34.1564 10.4453 33.4588 11.0786 33.0747 11.4352L33.0703 11.4309ZM31.1319 6.53497L31.132 6.63648C31.1327 7.37445 31.1334 7.99977 30.7721 8.66509C30.4663 9.23019 29.9809 9.57777 29.4411 9.57777C28.7037 9.57777 28.2721 8.9908 28.2721 8.12163C28.2721 6.41152 29.7409 6.10038 31.1319 6.10038V6.53497ZM7.41142 11.4776C7.5547 11.558 7.73834 11.55 7.8657 11.4309L7.87028 11.4352C8.25391 11.0786 8.95202 10.4453 9.34458 10.1016C9.50117 9.96817 9.47347 9.75088 9.35091 9.5682C9.31344 9.51417 9.27572 9.46121 9.23823 9.40857C8.92388 8.96718 8.62532 8.54797 8.62532 7.70731V4.57887C8.62532 4.47119 8.62591 4.36423 8.6265 4.25809C8.63315 3.05734 8.63922 1.96189 7.77999 1.12312C7.04241 0.384001 5.81935 0.123203 4.88395 0.123203C3.05438 0.123203 1.01261 0.836583 0.584494 3.19789C0.538913 3.44867 0.714041 3.58055 0.871503 3.61767L2.73488 3.82813C2.90935 3.81902 3.03563 3.63999 3.06899 3.45914C3.22886 2.64577 3.88117 2.25332 4.61439 2.25332C5.00979 2.25332 5.45971 2.40547 5.69351 2.77492C5.93526 3.14496 5.93148 3.63718 5.92809 4.07949C5.92769 4.13077 5.9273 4.18139 5.9273 4.23106V4.49186C5.75432 4.5121 5.57312 4.5313 5.38652 4.55106C4.37017 4.65872 3.1935 4.78335 2.312 5.18747C1.10704 5.73094 0.261719 6.83927 0.261719 8.46943C0.261719 10.5558 1.52054 11.599 3.13944 11.599C4.50644 11.599 5.25406 11.2624 6.30918 10.1395C6.36262 10.2202 6.41055 10.2946 6.45571 10.3646C6.70561 10.7524 6.87039 11.0081 7.41142 11.4776ZM5.92737 6.63756C5.92734 6.60361 5.9273 6.56941 5.9273 6.53497V6.10038C4.53653 6.10038 3.06747 6.41152 3.06747 8.12163C3.06747 8.9908 3.49929 9.57777 4.23666 9.57777C4.77622 9.57777 5.26191 9.23019 5.56745 8.66509C5.92877 8.00009 5.92813 7.37506 5.92737 6.63756Z" fill="#787878"/>
</svg>
