<svg width="94" height="14" viewBox="0 0 94 14" fill="none" xmlns="http://www.w3.org/2000/svg">
<path fill-rule="evenodd" clip-rule="evenodd" d="M5.73244 0.959586C4.3432 3.19019 4.17527 6.00613 5.30499 8.39494L7.15222 12.2234C7.21328 12.3341 7.32015 12.4132 7.44228 12.4132H11.2741C11.4573 12.4132 11.61 12.255 11.61 12.0652C11.61 12.0177 11.5947 11.9544 11.5795 11.907C11.5795 11.907 6.41943 1.2127 6.2973 0.943766C6.22097 0.785567 6.03777 0.722288 5.88511 0.801387C5.80878 0.848847 5.76298 0.896307 5.73244 0.959586ZM3.66398 6.40828C3.56033 6.2718 3.36784 6.24147 3.23458 6.34762C3.19015 6.37795 3.16054 6.42344 3.14573 6.46893L0.480488 11.9431C0.406454 12.1099 0.465682 12.307 0.628558 12.3829C0.672978 12.398 0.717399 12.4132 0.776627 12.4132H4.49316C4.61162 12.4132 4.73007 12.3525 4.77449 12.2312C5.55926 10.5329 5.07063 7.955 3.66398 6.40828ZM58.5888 9.88772L58.5888 9.87857L58.6038 9.88772C58.6038 11.7574 57.5839 13.0261 55.0492 13.0261C53.2495 13.0261 52.2896 12.5754 51.5547 12.1748V9.75417C52.6346 10.4386 53.8494 10.8059 55.0792 10.8226C56.0991 10.8226 56.3991 10.472 56.3991 9.9545C56.3991 9.4203 56.0991 9.1532 54.6443 8.81933C52.2296 8.28842 51.6073 7.11444 51.5998 5.64153L58.5888 9.88772ZM51.5998 5.64153L51.5547 5.61415C51.5547 3.74446 52.7696 2.60929 55.1242 2.60929C56.1591 2.5759 57.179 2.80961 58.1238 3.29373V5.63084C57.149 5.13003 56.1141 4.77946 55.0642 4.77946C54.1944 4.77946 53.7294 5.02987 53.7294 5.61415C53.7294 6.06488 54.0594 6.39875 55.3642 6.71593C57.7448 7.28253 58.5859 8.11531 58.5888 9.87857L51.5997 5.61415L51.5998 5.64153ZM85.0378 2.60615V12.4132H87.047V4.94039L87.8881 6.91801L90.7384 12.4132H93.2617V2.60615H91.2524V8.94426L90.4892 7.09632L88.1996 2.60615H85.0378ZM72.1145 2.60615H69.7648V12.4132H72.1145V2.60615ZM68.0025 9.88772C68.0025 8.1182 67.0965 7.28351 64.524 6.71593C63.1165 6.39875 62.7605 6.06488 62.7605 5.61415C62.7605 5.02987 63.2621 4.77946 64.2005 4.77946C65.333 4.77946 66.4493 5.13003 67.501 5.63084V3.29373C66.4817 2.80961 65.3815 2.5759 64.2652 2.60929C61.7251 2.60929 60.4146 3.74446 60.4146 5.61415C60.4146 7.09988 61.0779 8.28513 63.6989 8.81933C65.2683 9.1532 65.5919 9.4203 65.5919 9.9545C65.5919 10.472 65.2683 10.8226 64.1681 10.8226C62.8414 10.8059 61.5309 10.4386 60.366 9.75417V12.1748C61.1588 12.5754 62.1943 13.0261 64.1357 13.0261C66.9185 13.0094 68.0025 11.7574 68.0025 9.88772ZM34.5195 12.4132V2.60615H36.7604V10.2897H39.8063L39.0961 12.4132H34.5195ZM25.7081 2.60615V4.72966H28.083V12.4132H30.231V4.72966H32.7572V2.60615H25.7081ZM22.4464 2.60615H19.5711L16.3094 12.4132H18.7982L19.2619 10.7598C20.4059 11.1164 21.6116 11.1164 22.7556 10.7598L23.2193 12.4132H25.7081L22.4464 2.60615ZM21.0088 8.99289C20.6068 8.99289 20.2049 8.92805 19.803 8.81458L21.0088 4.53514L22.2145 8.81458C21.8126 8.94426 21.4107 8.99289 21.0088 8.99289ZM43.6554 2.60615H46.5307L49.7924 12.4132H47.3036L46.8399 10.7598C45.6959 11.1164 44.4902 11.1164 43.3463 10.7598L42.8825 12.4132H40.3937L43.6554 2.60615ZM43.8873 8.81458C44.2892 8.92805 44.6911 8.99289 45.0931 8.99289C45.495 8.99289 45.8969 8.94426 46.2988 8.81458L45.0931 4.53514L43.8873 8.81458ZM80.0138 2.60615H77.1385L73.8768 12.4132H76.3656L76.8293 10.7598C77.9733 11.1164 79.179 11.1164 80.3229 10.7598L80.7867 12.4132H83.2755L80.0138 2.60615ZM78.5761 8.99289C78.1742 8.99289 77.7723 8.92805 77.3704 8.81458L78.5761 4.53514L79.7819 8.81458C79.38 8.94426 78.9781 8.99289 78.5761 8.99289Z" fill="#787878"/>
</svg>
