<svg width="64" height="22" viewBox="0 0 64 22" fill="none" xmlns="http://www.w3.org/2000/svg">
<path fill-rule="evenodd" clip-rule="evenodd" d="M8.21938 7.74162V10.0521L13.5115 10.0496C13.3491 11.3239 12.9373 12.257 12.3114 12.9101C11.5396 13.7154 10.3348 14.6018 8.21938 14.6018C4.95798 14.6018 2.40722 11.8592 2.40722 8.45612C2.40722 5.05305 4.95798 2.31046 8.21938 2.31046C9.9795 2.31046 11.2643 3.03232 12.2126 3.96043L13.7751 2.3301C12.4526 1.01159 10.6925 0 8.22174 0C3.75555 0 0 3.79592 0 8.45612C0 13.1163 3.75555 16.9122 8.22174 16.9122C10.6313 16.9122 12.4503 16.0873 13.8739 14.5404L13.9572 14.4516C15.3548 12.9309 15.7917 10.8364 15.7917 9.13624C15.7917 8.62063 15.754 8.14429 15.6811 7.74162H8.21938ZM52.8601 0.621196V16.5808H50.6246V0.621196H52.8601ZM21.9168 16.9147C24.8017 16.9147 27.1524 14.6042 27.1524 11.4688C27.1524 8.31126 24.8017 6.0229 21.9168 6.0229C19.0319 6.0229 16.6811 8.31126 16.6811 11.4688C16.6811 14.6042 19.0319 16.9147 21.9168 16.9147ZM21.9168 8.16885C23.4981 8.16885 24.8605 9.50945 24.8605 11.4688C24.8605 13.406 23.4981 14.7687 21.9168 14.7687C20.3355 14.7687 18.9731 13.4085 18.9731 11.4688C18.9731 9.50945 20.3355 8.16885 21.9168 8.16885ZM38.4473 11.4688C38.4473 14.6042 36.0966 16.9147 33.2117 16.9147C30.3268 16.9147 27.976 14.6042 27.976 11.4688C27.976 8.31371 30.3268 6.0229 33.2117 6.0229C36.0966 6.0229 38.4473 8.31126 38.4473 11.4688ZM33.2117 8.16885C34.793 8.16885 36.1554 9.50945 36.1554 11.4688C36.1554 13.406 34.793 14.7687 33.2117 14.7687C31.6304 14.7687 30.2679 13.4085 30.2679 11.4688C30.2679 9.50945 31.6304 8.16885 33.2117 8.16885ZM49.2716 6.35437V16.129C49.2716 20.1508 46.9985 21.7934 44.3112 21.7934C41.7817 21.7934 40.2592 20.028 39.6851 18.5843L41.6805 17.7176C42.0358 18.604 42.9064 19.6499 44.3089 19.6499C46.029 19.6499 47.095 18.5426 47.095 16.458V15.6748H47.015C46.502 16.3352 45.5137 16.9122 44.2665 16.9122C41.6569 16.9122 39.2662 14.5404 39.2662 11.4884C39.2662 8.41438 41.6569 6.0229 44.2665 6.0229C45.5113 6.0229 46.4996 6.5999 47.015 7.24074H47.095V6.35437H49.2716ZM44.4713 8.16885C46.0314 8.16885 47.2573 9.57084 47.2573 11.4884C47.2573 13.3864 46.0314 14.7687 44.4713 14.7687C42.89 14.7687 41.5652 13.3864 41.5652 11.4884C41.5652 9.57084 42.89 8.16885 44.4713 8.16885ZM63.3502 14.4987L61.5712 13.2612C60.9783 14.1696 60.1688 14.7687 59.0017 14.7687C57.8369 14.7687 57.0062 14.2114 56.4721 13.1188L63.449 10.1036L63.2114 9.4849C62.7784 8.26952 61.4536 6.02044 58.7452 6.02044C56.0556 6.02044 53.8225 8.22778 53.8225 11.4663C53.8225 14.5208 56.0367 16.9122 59.0017 16.9122C61.3165 16.9122 62.6872 15.4805 63.293 14.5849L63.3502 14.4987ZM56.0956 11.3018L60.7594 9.28111C60.5029 8.60098 59.7311 8.12711 58.8228 8.12711C57.6752 8.12711 56.0843 9.16876 56.0941 11.2098L56.0956 11.3018Z" fill="#787878"/>
</svg>
